<svg xmlns="http://www.w3.org/2000/svg" viewBox="315 40 370 335" width="370" height="335">
  <defs>
    <linearGradient id="Gradient1" gradientUnits="userSpaceOnUse" x1="362.816" y1="225.285" x2="562.352" y2="98.6749">
      <stop offset="0" stop-color="rgb(236,123,65)"/>
      <stop offset="1" stop-color="rgb(249,176,80)"/>
    </linearGradient>
    <linearGradient id="Gradient2" gradientUnits="userSpaceOnUse" x1="412.496" y1="351.729" x2="662.058" y2="181.954">
      <stop offset="0" stop-color="rgb(151,153,154)"/>
      <stop offset="1" stop-color="rgb(196,194,192)"/>
    </linearGradient>
  </defs>
  <path transform="translate(0,0)" fill="rgb(240,243,241)" d="M 430.884 122.197 C 445.684 74.207 497.223 50.316 541.939 76.3782 C 559.08 86.5214 571.521 103.023 576.557 122.293 C 580.681 122.029 585.066 121.651 589.183 121.715 C 626.425 122.292 653.53 152.236 655.207 188.332 C 656.25 207.279 649.606 225.845 636.778 239.828 C 625.694 251.727 613.435 257.464 597.81 260.516 C 597.803 272.984 598.989 347.089 596.133 353.109 C 588.707 357.824 546.546 345.995 532.821 352.427 C 524.206 354.389 508.438 366.355 499.537 362.436 C 484.293 355.722 478.14 353.127 461.893 350.917 C 450.235 349.331 416.813 356.194 412.018 353.872 C 405.796 342.066 413.744 270.135 409.291 260.359 L 407.246 259.746 C 372.453 251.697 349.869 223.199 352.28 187.203 C 353.573 168.116 362.387 150.322 376.787 137.726 C 393.654 123.184 409.793 120.543 430.884 122.197 z"/>
  <path transform="translate(0,0)" fill="rgb(238,137,65)" d="M 503.854 225.114 C 517.986 216.372 559.718 198.655 574.432 208.028 C 577.262 216.336 576.693 316.18 575.681 330.013 C 555.164 330.067 539.114 331.37 520.697 341.73 C 504.16 351.903 503.59 352.464 487.222 341.823 C 471.025 333.139 458.251 329.869 439.797 330.269 C 437.113 330.328 432.158 329.964 432.094 327.281 C 431.566 305.391 429.331 224.153 433.192 207.593 C 447.974 198.697 489.787 216.537 503.854 225.114 z"/>
  <path transform="translate(0,0)" fill="rgb(240,243,241)" d="M 562.389 218.388 L 563.267 218.414 C 563.705 218.908 564.144 219.402 564.582 219.895 C 564.431 246.514 564.487 293.605 564.5 318.733 C 538.741 319.733 525.891 324.236 504.476 338.201 C 484.578 324.968 469.825 319.55 445.793 318.811 L 444.045 318.604 C 442.071 315.869 443.005 281.094 442.989 275.152 C 442.938 256.314 442.931 237.195 442.839 218.338 C 470.277 220.073 480.657 223.863 503.264 239.45 C 526.315 224.608 535.36 221.025 562.389 218.388 z"/>
  <path transform="translate(0,0)" fill="rgb(238,137,65)" d="M 469.907 240.601 L 471.442 238.548 C 478.616 239.109 489.543 251.323 493.566 257.441 C 496.147 261.365 495.265 264.809 494.197 268.957 L 504.065 277.845 L 509.252 282.442 C 514.739 287.368 533.138 302.115 534.563 309.292 C 534.984 311.414 534.057 312.662 533.121 314.385 C 524.396 318.251 510.23 296.869 504.851 290.717 L 502.457 291.803 C 501.024 289.826 498.25 287.076 496.493 285.22 L 498.784 283.718 C 485.628 267.614 484.81 279.668 473.733 269.695 C 470.62 264.975 460.922 257.458 458.976 251.194 C 458.527 249.749 459.59 249.023 460.738 247.387 L 464.067 246.452 L 466.202 242.03 L 469.907 240.601 z"/>
  <path transform="translate(0,0)" fill="rgb(248,233,212)" d="M 469.907 240.601 C 473.69 244.358 483.944 253.414 484.862 257.552 L 483.643 258.401 C 478.355 255.555 473.292 246.09 466.202 242.03 L 469.907 240.601 z"/>
  <path transform="translate(0,0)" fill="rgb(248,233,212)" d="M 464.067 246.452 C 467.487 249.892 477.659 259.083 478.269 263.04 L 477.797 264.087 C 472.871 262.433 466.087 251.51 460.738 247.387 L 464.067 246.452 z"/>
  <path transform="translate(0,0)" fill="rgb(248,233,212)" d="M 498.784 283.718 L 504.851 290.717 L 502.457 291.803 C 501.024 289.826 498.25 287.076 496.493 285.22 L 498.784 283.718 z"/>
  <path transform="translate(0,0)" fill="rgb(238,137,65)" d="M 514.01 268.563 C 513.914 255.825 514.225 255.604 522.567 244.99 C 531.045 234.206 549.596 241.584 547.619 252.947 C 545.479 265.247 532.439 272.826 519.594 273.486 L 512.386 280.794 L 509.252 282.442 L 504.065 277.845 L 506.073 275.745 C 508.853 273.409 511.566 271.254 514.01 268.563 z"/>
  <path transform="translate(0,0)" fill="rgb(248,233,212)" d="M 504.065 277.845 L 506.073 275.745 C 507.943 277.454 510.163 279.78 512.386 280.794 L 509.252 282.442 L 504.065 277.845 z"/>
  <path transform="translate(0,0)" fill="rgb(238,137,65)" d="M 496.493 285.22 C 498.25 287.076 501.024 289.826 502.457 291.803 C 496.199 297.51 484.623 316.555 476.057 315.356 C 473.42 313.068 474.218 314.26 473.231 310.636 C 473.455 305.297 491.221 290.49 496.493 285.22 z"/>
  <path transform="translate(0,0)" fill="url(#Gradient2)" d="M 576.557 122.293 C 580.681 122.029 585.066 121.651 589.183 121.715 C 626.425 122.292 653.53 152.236 655.207 188.332 C 656.25 207.279 649.606 225.845 636.778 239.828 C 625.694 251.727 613.435 257.464 597.81 260.516 C 597.803 272.984 598.989 347.089 596.133 353.109 C 588.707 357.824 546.546 345.995 532.821 352.427 C 524.206 354.389 508.438 366.355 499.537 362.436 C 484.293 355.722 478.14 353.127 461.893 350.917 C 450.235 349.331 416.813 356.194 412.018 353.872 C 405.796 342.066 413.744 270.135 409.291 260.359 L 407.246 259.746 L 409.396 258.269 C 410.389 254.338 410.749 248.486 408.83 244.849 C 412.242 238.779 406.766 230.913 412.945 226.127 C 416.475 225.485 417.742 225.04 421.251 226.183 C 423.243 230.153 422.347 331.76 422.35 341.566 C 438.755 338.084 452.125 337.946 468.945 339.677 C 472.421 340.035 484.777 342.037 487.222 341.823 C 503.59 352.464 504.16 351.903 520.697 341.73 C 522.734 341.937 536.422 339.933 539.558 339.597 C 556.563 337.778 568.419 338.728 585.028 341.802 C 585.009 329.489 583.691 229.823 586.462 225.716 C 590.442 224.63 593.866 224.767 597.16 227.471 C 598.353 230.911 597.793 241.01 597.724 245.17 C 608.115 241.909 616.527 238.394 624.5 230.555 C 634.963 220.073 640.731 205.797 640.486 190.989 C 640.508 176.085 634.493 161.808 623.814 151.412 C 610.128 138.331 597.309 136.44 579.714 136.818 C 579.869 141.526 579.737 144.269 579.328 148.975 C 579.347 138.072 578.765 132.8 576.557 122.293 z"/>
  <path transform="translate(0,0)" fill="url(#Gradient1)" d="M 430.884 122.197 C 445.684 74.207 497.223 50.316 541.939 76.3782 C 559.08 86.5214 571.521 103.023 576.557 122.293 C 578.765 132.8 579.347 138.072 579.328 148.975 C 578.16 158.681 576.508 180.282 564.062 180.089 C 561.276 178.869 561.088 178.423 559.595 175.73 C 557.996 167.348 563.841 157.962 564.302 150.385 C 568.815 76.0798 472.148 51.1515 445.737 126.354 C 454.457 130.21 475.487 140.476 472.544 151.937 C 469.844 155.528 471.254 154.446 467.272 156.197 C 461.714 156.379 454.962 150.411 450.663 147.086 C 413.965 118.703 364.731 150.669 366.807 194.467 C 367.409 209.028 373.872 222.727 384.727 232.451 C 392.319 239.146 399.303 242.139 408.83 244.849 C 410.749 248.486 410.389 254.338 409.396 258.269 L 407.246 259.746 C 372.453 251.697 349.869 223.199 352.28 187.203 C 353.573 168.116 362.387 150.322 376.787 137.726 C 393.654 123.184 409.793 120.543 430.884 122.197 z"/>
  <path transform="translate(0,0)" fill="rgb(190,192,195)" d="M 500.179 94.0327 C 525.033 93.2353 551.025 110.936 551.894 136.588 C 552.032 140.647 552.489 142.776 550.698 146.488 C 549.23 146.365 545.67 146.052 545.26 145.094 C 540.276 133.464 540.914 125.938 532.461 115.319 C 524.435 105.236 503.996 105.882 499.293 100.428 C 498.527 97.4674 498.94 96.8905 500.179 94.0327 z"/>
  <path transform="translate(0,0)" fill="rgb(190,192,195)" d="M 418.367 149.248 C 421.845 149.466 423.391 149.931 424.226 153.3 C 420.631 159.294 415.522 158.234 408.83 160.927 C 398.16 164.85 391.994 175.582 388.907 185.964 C 387.597 190.372 388.23 192.328 385.903 197.062 C 367.375 196.274 384.529 154.432 418.367 149.248 z"/>
</svg>
