<svg xmlns="http://www.w3.org/2000/svg" viewBox="0 0 1024 1024" width="1024" height="1024">
  <title>Recipely</title>
  <path
    fill="#10B981"
    fill-rule="evenodd"
    d="M 512 60
       C 552 200 830 320 870 510
       C 870 720 720 870 560 905
       L 540 905
       L 540 950
       Q 540 985 512 985
       Q 484 985 484 950
       L 484 905
       L 464 905
       C 304 870 154 720 154 510
       C 154 280 472 200 512 60
       Z
       M 400 360
       L 590 360
       A 90 90 0 0 1 590 540
       L 510 540
       L 640 700
       L 560 700
       L 460 580
       L 460 700
       L 400 700
       Z
       M 460 420
       L 560 420
       A 60 60 0 0 1 560 480
       L 460 480
       Z"
  />
</svg>
